<?xml version="1.0" encoding="utf-8"?>

<!DOCTYPE svg PUBLIC "-//W3C//DTD SVG 1.1//EN" "http://www.w3.org/Graphics/SVG/1.1/DTD/svg11.dtd">
<!-- Uploaded to: SVG Repo, www.svgrepo.com, Generator: SVG Repo Mixer Tools -->
<svg height="800px" width="800px" version="1.1" id="_x32_" xmlns="http://www.w3.org/2000/svg" xmlns:xlink="http://www.w3.org/1999/xlink" 
	 viewBox="0 0 512 512"  xml:space="preserve">
<style type="text/css">
	.st0{fill:#000000;}
</style>
<g>
	<path class="st0" d="M48.334,490.794c0.016-19.684,4.755-35.814,12.292-49.534c11.289-20.533,29.242-35.692,47.474-46.686
		c18.217-10.994,36.453-17.692,47.818-21.697c8.954-3.168,19.354-7.755,28.212-13.902c4.429-3.093,8.506-6.577,11.783-10.871
		c3.235-4.241,5.772-9.623,5.776-15.825c0-9.149,0-20.579,0-36.258v-0.505l-0.054-0.506c-0.532-4.9-2.481-8.766-4.444-12.096
		c-3.012-5.023-6.4-9.394-9.497-15.059c-3.085-5.643-5.96-12.456-7.667-22.049l-0.992-5.604l-5.359-1.914
		c-2.45-0.88-4.203-1.73-5.681-2.756c-2.174-1.546-4.188-3.613-6.744-8.368c-2.519-4.723-5.286-11.996-8.322-22.669
		c-1.305-4.555-1.741-8-1.741-10.442c0.076-4.196,1.007-5.183,1.516-5.819c0.544-0.612,1.512-1.079,2.588-1.317l8.521-1.906
		l-0.915-8.682c-2.009-19.048-4.792-46.532-4.792-73.734c-0.008-18.382,1.298-36.626,4.778-51.685
		c2.886-12.717,7.415-22.822,13.049-29.253c9.053,2.066,17.436,2.817,25.269,2.81c13.815-0.03,25.88-1.884,39.167-1.853h0.314
		l0.333-0.015c4.98-0.306,9.436-0.452,13.436-0.452c12.754,0.007,20.705,1.462,27.159,3.95c6.446,2.488,11.966,6.278,19.43,12.089
		l1.922,1.492l2.392,0.421c8.754,1.569,15.24,4.686,20.472,8.919c7.798,6.323,13.05,15.656,16.361,27.232
		c3.3,11.53,4.502,25.05,4.49,38.486c0.004,11.316-0.823,22.569-1.776,32.621c-0.952,10.076-2.028,18.872-2.503,25.732v-0.024
		c-0.084,1.218-0.191,2.266-0.314,3.446l-0.869,8.352l8.119,2.136c1.037,0.275,1.857,0.72,2.373,1.332
		c0.49,0.636,1.374,1.738,1.432,5.735c0.004,2.442-0.432,5.887-1.73,10.427c-4.038,14.248-7.655,22.378-10.729,26.612
		c-1.543,2.136-2.867,3.384-4.345,4.425c-1.478,1.026-3.23,1.876-5.68,2.756l-5.359,1.914l-0.992,5.604
		c-1.167,6.606-2.572,11.369-4.054,15.105c-2.235,5.589-4.636,9.049-7.728,13.62c-3.062,4.509-6.753,10.121-9.635,18.168
		l-0.582,1.608v1.714c0,15.679,0,27.109,0,36.258c-0.012,5.719,2.128,10.895,5.049,15.006c4.432,6.209,10.523,10.733,17.141,14.691
		c6.634,3.92,13.904,7.15,20.87,9.861l7.097-18.266h-0.004c-8.406-3.246-17.007-7.358-22.818-11.622
		c-2.909-2.105-5.072-4.234-6.263-5.949c-1.213-1.761-1.462-2.832-1.473-3.721c0-8.743,0-19.675,0-34.305
		c1.263-3.193,2.583-5.796,4.076-8.215c2.526-4.15,5.891-8.344,9.267-14.653c2.802-5.26,5.302-11.882,7.235-20.548
		c1.7-0.827,3.395-1.784,5.049-2.94c5.068-3.499,9.356-8.598,12.862-15.266c3.545-6.699,6.603-15.098,9.864-26.474
		c1.677-5.91,2.48-11.094,2.484-15.809c0.057-7.579-2.316-14.148-6.232-18.582c-1.366-1.569-2.844-2.756-4.33-3.782
		c0.494-5.834,1.386-13.574,2.232-22.5c0.98-10.358,1.864-22.202,1.864-34.467c-0.038-19.408-2.105-39.902-10.316-57.587
		c-4.119-8.82-9.888-16.934-17.77-23.342c-7.262-5.918-16.33-10.16-26.849-12.395c-7.14-5.474-14.052-10.267-22.669-13.597
		c-9.302-3.605-20.039-5.274-34.221-5.266c-4.479,0-9.321,0.16-14.623,0.482C225.024,3.1,212.901,4.9,201.2,4.869
		c-8.169-0.008-16.223-0.789-25.56-3.446L170.637,0l-3.985,3.338c-12.26,10.412-18.841,25.93-22.868,43.171
		c-3.977,17.318-5.267,36.786-5.278,56.087c0.004,25.188,2.254,50.069,4.168,68.742c-1.458,0.949-2.91,2.044-4.283,3.506
		c-4.226,4.426-6.876,11.27-6.802,19.209c0.004,4.716,0.807,9.915,2.491,15.825c4.356,15.151,8.296,25.08,13.62,32.614
		c2.66,3.744,5.746,6.806,9.099,9.126c1.646,1.148,3.33,2.098,5.022,2.924c3.036,12.969,8.146,22.37,12.529,29.176
		c2.465,3.851,4.644,6.913,5.99,9.202c1.29,2.144,1.673,3.369,1.75,3.928c0,15.228,0,26.451,0,35.431
		c0.004,0.713-0.276,1.968-1.791,3.982c-2.198,2.978-6.99,6.775-12.736,9.991c-5.734,3.269-12.36,6.102-18.16,8.146
		c-15.614,5.528-45.238,16.315-71.467,37.315c-13.114,10.511-25.424,23.664-34.478,40.094
		c-9.057,16.414-14.742,36.104-14.723,58.988c0,3.973,0.168,8.054,0.517,12.226l0.75,8.98h320.684v-19.599H48.404
		C48.396,491.874,48.334,491.314,48.334,490.794z"/>
	<path class="st0" d="M412.708,361.088c-38.968,0-70.556,31.588-70.556,70.556c0,38.968,31.588,70.556,70.556,70.556
		c38.968,0,70.556-31.588,70.556-70.556C483.264,392.676,451.676,361.088,412.708,361.088z M451.906,441.444H373.51v-19.599h78.396
		V441.444z"/>
</g>
</svg>